<svg width="512" height="512" viewBox="0 0 512 512" xmlns="http://www.w3.org/2000/svg">
  <rect width="512" height="512" rx="96" fill="#8b5cf6"/>
  <path d="M160 320c0-88 64-160 152-160 64 0 112 40 112 96 0 40-24 64-56 64-8 0-16-2-16-2"
        fill="none" stroke="#ffffff" stroke-width="16" stroke-linecap="round"/>
  <circle cx="270" cy="190" r="10" fill="#ffffff"/>
  <path d="M310 250a40 40 0 1 0 0 1" fill="none" stroke="#fef08a" stroke-width="10" stroke-linecap="round"/>
  <path d="M150 360c20-12 40-12 60 0s40 12 60 0 40-12 60 0 40 12 60 0"
        fill="none" stroke="#ffffff" stroke-width="10" stroke-linecap="round" opacity="0.6"/>
</svg>
